<svg id="visual" viewBox="0 0 900 100" width="900" height="100" xmlns="http://www.w3.org/2000/svg" xmlns:xlink="http://www.w3.org/1999/xlink" version="1.1"><path d="M0 14L10.7 15C21.3 16 42.7 18 64.2 19.5C85.7 21 107.3 22 128.8 21.3C150.3 20.7 171.7 18.3 193 16.8C214.3 15.3 235.7 14.7 257 16.2C278.3 17.7 299.7 21.3 321.2 23C342.7 24.7 364.3 24.3 385.8 23.5C407.3 22.7 428.7 21.3 450 22.5C471.3 23.7 492.7 27.3 514.2 28.5C535.7 29.7 557.3 28.3 578.8 27C600.3 25.7 621.7 24.3 643 22.7C664.3 21 685.7 19 707 20C728.3 21 749.7 25 771.2 26.7C792.7 28.3 814.3 27.7 835.8 25.7C857.3 23.7 878.7 20.3 889.3 18.7L900 17L900 101L889.3 101C878.7 101 857.3 101 835.8 101C814.3 101 792.7 101 771.2 101C749.7 101 728.3 101 707 101C685.7 101 664.3 101 643 101C621.7 101 600.3 101 578.8 101C557.3 101 535.7 101 514.2 101C492.7 101 471.3 101 450 101C428.7 101 407.3 101 385.8 101C364.3 101 342.7 101 321.2 101C299.7 101 278.3 101 257 101C235.7 101 214.3 101 193 101C171.7 101 150.3 101 128.8 101C107.3 101 85.7 101 64.2 101C42.7 101 21.3 101 10.7 101L0 101Z" fill="#a1d0a5"></path><path d="M0 39L10.7 39C21.3 39 42.7 39 64.2 38.8C85.7 38.7 107.3 38.3 128.8 38.2C150.3 38 171.7 38 193 39.5C214.3 41 235.7 44 257 46C278.3 48 299.7 49 321.2 47.2C342.7 45.3 364.3 40.7 385.8 40.5C407.3 40.3 428.7 44.7 450 46.5C471.3 48.3 492.7 47.7 514.2 45.7C535.7 43.7 557.3 40.3 578.8 39.5C600.3 38.7 621.7 40.3 643 41.8C664.3 43.3 685.7 44.7 707 45.8C728.3 47 749.7 48 771.2 47C792.7 46 814.3 43 835.8 42.5C857.3 42 878.7 44 889.3 45L900 46L900 101L889.3 101C878.7 101 857.3 101 835.8 101C814.3 101 792.7 101 771.2 101C749.7 101 728.3 101 707 101C685.7 101 664.3 101 643 101C621.7 101 600.3 101 578.8 101C557.3 101 535.7 101 514.2 101C492.7 101 471.3 101 450 101C428.7 101 407.3 101 385.8 101C364.3 101 342.7 101 321.2 101C299.7 101 278.3 101 257 101C235.7 101 214.3 101 193 101C171.7 101 150.3 101 128.8 101C107.3 101 85.7 101 64.2 101C42.7 101 21.3 101 10.7 101L0 101Z" fill="#70c8c6"></path><path d="M0 54L10.7 55C21.3 56 42.7 58 64.2 58.3C85.7 58.7 107.3 57.3 128.8 57.8C150.3 58.3 171.7 60.7 193 61.7C214.3 62.7 235.7 62.3 257 61.8C278.3 61.3 299.7 60.7 321.2 60C342.7 59.3 364.3 58.7 385.8 57.3C407.3 56 428.7 54 450 53C471.3 52 492.7 52 514.2 53.2C535.7 54.3 557.3 56.7 578.8 58.8C600.3 61 621.7 63 643 62.3C664.3 61.7 685.7 58.3 707 58.2C728.3 58 749.7 61 771.2 62.3C792.7 63.7 814.3 63.3 835.8 63.2C857.3 63 878.7 63 889.3 63L900 63L900 101L889.3 101C878.7 101 857.3 101 835.8 101C814.3 101 792.7 101 771.2 101C749.7 101 728.3 101 707 101C685.7 101 664.3 101 643 101C621.7 101 600.3 101 578.8 101C557.3 101 535.7 101 514.2 101C492.7 101 471.3 101 450 101C428.7 101 407.3 101 385.8 101C364.3 101 342.7 101 321.2 101C299.7 101 278.3 101 257 101C235.7 101 214.3 101 193 101C171.7 101 150.3 101 128.8 101C107.3 101 85.7 101 64.2 101C42.7 101 21.3 101 10.7 101L0 101Z" fill="#76b8db"></path><path d="M0 75L10.7 76.2C21.3 77.3 42.7 79.7 64.2 79.7C85.7 79.7 107.3 77.3 128.8 76.5C150.3 75.7 171.7 76.3 193 78.2C214.3 80 235.7 83 257 83.8C278.3 84.7 299.7 83.3 321.2 83.5C342.7 83.7 364.3 85.3 385.8 84.7C407.3 84 428.7 81 450 80.5C471.3 80 492.7 82 514.2 82C535.7 82 557.3 80 578.8 80.2C600.3 80.3 621.7 82.7 643 83.2C664.3 83.7 685.7 82.3 707 81.2C728.3 80 749.7 79 771.2 78.2C792.7 77.3 814.3 76.7 835.8 76.7C857.3 76.7 878.7 77.3 889.3 77.7L900 78L900 101L889.3 101C878.7 101 857.3 101 835.8 101C814.3 101 792.7 101 771.2 101C749.7 101 728.3 101 707 101C685.7 101 664.3 101 643 101C621.7 101 600.3 101 578.8 101C557.3 101 535.7 101 514.2 101C492.7 101 471.3 101 450 101C428.7 101 407.3 101 385.8 101C364.3 101 342.7 101 321.2 101C299.7 101 278.3 101 257 101C235.7 101 214.3 101 193 101C171.7 101 150.3 101 128.8 101C107.3 101 85.7 101 64.2 101C42.7 101 21.3 101 10.7 101L0 101Z" fill="#a3a1d0"></path></svg>