<svg id="visual" viewBox="0 0 900 300" width="900" height="300" xmlns="http://www.w3.org/2000/svg" xmlns:xlink="http://www.w3.org/1999/xlink" version="1.1"><path d="M0 197L10.7 198.3C21.3 199.7 42.7 202.3 64.2 204.2C85.7 206 107.3 207 128.8 206C150.3 205 171.7 202 193 200.2C214.3 198.3 235.7 197.7 257 199.7C278.3 201.7 299.7 206.3 321.2 208.2C342.7 210 364.3 209 385.8 208C407.3 207 428.7 206 450 207.5C471.3 209 492.7 213 514.2 214.2C535.7 215.3 557.3 213.7 578.8 212.2C600.3 210.7 621.7 209.3 643 207.5C664.3 205.7 685.7 203.3 707 204.5C728.3 205.7 749.7 210.3 771.2 212.2C792.7 214 814.3 213 835.8 210.7C857.3 208.3 878.7 204.7 889.3 202.8L900 201L900 301L889.3 301C878.7 301 857.3 301 835.8 301C814.3 301 792.7 301 771.2 301C749.7 301 728.3 301 707 301C685.7 301 664.3 301 643 301C621.7 301 600.3 301 578.8 301C557.3 301 535.7 301 514.2 301C492.7 301 471.3 301 450 301C428.7 301 407.3 301 385.8 301C364.3 301 342.7 301 321.2 301C299.7 301 278.3 301 257 301C235.7 301 214.3 301 193 301C171.7 301 150.3 301 128.8 301C107.3 301 85.7 301 64.2 301C42.7 301 21.3 301 10.7 301L0 301Z" fill="#a1d0a5"></path><path d="M0 227L10.7 227C21.3 227 42.7 227 64.2 226.8C85.7 226.7 107.3 226.3 128.8 226.2C150.3 226 171.7 226 193 227.7C214.3 229.3 235.7 232.7 257 235C278.3 237.3 299.7 238.7 321.2 236.5C342.7 234.3 364.3 228.7 385.8 228.5C407.3 228.3 428.7 233.7 450 236C471.3 238.3 492.7 237.7 514.2 235.3C535.7 233 557.3 229 578.8 228C600.3 227 621.7 229 643 230.8C664.3 232.7 685.7 234.3 707 235.8C728.3 237.3 749.7 238.7 771.2 237.3C792.7 236 814.3 232 835.8 231.3C857.3 230.7 878.7 233.3 889.3 234.7L900 236L900 301L889.3 301C878.7 301 857.3 301 835.8 301C814.3 301 792.7 301 771.2 301C749.7 301 728.3 301 707 301C685.7 301 664.3 301 643 301C621.7 301 600.3 301 578.8 301C557.3 301 535.7 301 514.2 301C492.7 301 471.3 301 450 301C428.7 301 407.3 301 385.8 301C364.3 301 342.7 301 321.2 301C299.7 301 278.3 301 257 301C235.7 301 214.3 301 193 301C171.7 301 150.3 301 128.8 301C107.3 301 85.7 301 64.2 301C42.7 301 21.3 301 10.7 301L0 301Z" fill="#70c8c6"></path><path d="M0 245L10.7 246.2C21.3 247.3 42.7 249.7 64.2 250.2C85.7 250.7 107.3 249.3 128.8 250C150.3 250.7 171.7 253.3 193 254.5C214.3 255.7 235.7 255.3 257 254.7C278.3 254 299.7 253 321.2 252.2C342.7 251.3 364.3 250.7 385.8 249.2C407.3 247.7 428.7 245.3 450 244.2C471.3 243 492.7 243 514.2 244.2C535.7 245.3 557.3 247.7 578.8 250.3C600.3 253 621.7 256 643 255.3C664.3 254.7 685.7 250.3 707 250C728.3 249.7 749.7 253.3 771.2 255C792.7 256.7 814.3 256.3 835.8 256.2C857.3 256 878.7 256 889.3 256L900 256L900 301L889.3 301C878.7 301 857.3 301 835.8 301C814.3 301 792.7 301 771.2 301C749.7 301 728.3 301 707 301C685.7 301 664.3 301 643 301C621.7 301 600.3 301 578.8 301C557.3 301 535.7 301 514.2 301C492.7 301 471.3 301 450 301C428.7 301 407.3 301 385.8 301C364.3 301 342.7 301 321.2 301C299.7 301 278.3 301 257 301C235.7 301 214.3 301 193 301C171.7 301 150.3 301 128.8 301C107.3 301 85.7 301 64.2 301C42.7 301 21.3 301 10.7 301L0 301Z" fill="#76b8db"></path><path d="M0 270L10.7 271.3C21.3 272.7 42.7 275.3 64.2 275.5C85.7 275.7 107.3 273.3 128.8 272.5C150.3 271.7 171.7 272.3 193 274.5C214.3 276.7 235.7 280.3 257 281.3C278.3 282.3 299.7 280.7 321.2 280.8C342.7 281 364.3 283 385.8 282.2C407.3 281.3 428.7 277.7 450 277C471.3 276.3 492.7 278.7 514.2 278.7C535.7 278.7 557.3 276.3 578.8 276.5C600.3 276.7 621.7 279.3 643 280C664.3 280.7 685.7 279.3 707 278C728.3 276.7 749.7 275.3 771.2 274.2C792.7 273 814.3 272 835.8 271.8C857.3 271.7 878.7 272.3 889.3 272.7L900 273L900 301L889.3 301C878.7 301 857.3 301 835.8 301C814.3 301 792.7 301 771.2 301C749.7 301 728.3 301 707 301C685.7 301 664.3 301 643 301C621.7 301 600.3 301 578.8 301C557.3 301 535.7 301 514.2 301C492.7 301 471.3 301 450 301C428.7 301 407.3 301 385.8 301C364.3 301 342.7 301 321.2 301C299.7 301 278.3 301 257 301C235.7 301 214.3 301 193 301C171.7 301 150.3 301 128.8 301C107.3 301 85.7 301 64.2 301C42.7 301 21.3 301 10.7 301L0 301Z" fill="#a3a1d0"></path></svg>