<svg id="visual" viewBox="0 0 900 300" width="900" height="300" xmlns="http://www.w3.org/2000/svg" xmlns:xlink="http://www.w3.org/1999/xlink" version="1.1"><path d="M0 213L12.5 214.8C25 216.7 50 220.3 75 224.3C100 228.3 125 232.7 150 231.3C175 230 200 223 225 220.3C250 217.7 275 219.3 300 222.5C325 225.7 350 230.3 375 227.7C400 225 425 215 450 214.2C475 213.3 500 221.7 525 224.7C550 227.7 575 225.3 600 224.3C625 223.3 650 223.7 675 225.7C700 227.7 725 231.3 750 230.7C775 230 800 225 825 220.5C850 216 875 212 887.5 210L900 208L900 301L887.5 301C875 301 850 301 825 301C800 301 775 301 750 301C725 301 700 301 675 301C650 301 625 301 600 301C575 301 550 301 525 301C500 301 475 301 450 301C425 301 400 301 375 301C350 301 325 301 300 301C275 301 250 301 225 301C200 301 175 301 150 301C125 301 100 301 75 301C50 301 25 301 12.5 301L0 301Z" fill="#a1d0a5"></path><path d="M0 252L12.5 250C25 248 50 244 75 239.5C100 235 125 230 150 227.7C175 225.3 200 225.7 225 227.8C250 230 275 234 300 235.5C325 237 350 236 375 236C400 236 425 237 450 238C475 239 500 240 525 241.2C550 242.3 575 243.7 600 245.2C625 246.7 650 248.3 675 245.3C700 242.3 725 234.7 750 234.5C775 234.3 800 241.7 825 244.2C850 246.7 875 244.3 887.5 243.2L900 242L900 301L887.5 301C875 301 850 301 825 301C800 301 775 301 750 301C725 301 700 301 675 301C650 301 625 301 600 301C575 301 550 301 525 301C500 301 475 301 450 301C425 301 400 301 375 301C350 301 325 301 300 301C275 301 250 301 225 301C200 301 175 301 150 301C125 301 100 301 75 301C50 301 25 301 12.5 301L0 301Z" fill="#7eb17d"></path><path d="M0 262L12.5 261.8C25 261.7 50 261.3 75 260.7C100 260 125 259 150 260.3C175 261.7 200 265.3 225 264.3C250 263.3 275 257.7 300 257.5C325 257.3 350 262.7 375 264.7C400 266.7 425 265.3 450 263.5C475 261.7 500 259.3 525 258.7C550 258 575 259 600 258C625 257 650 254 675 253.3C700 252.7 725 254.3 750 256.3C775 258.3 800 260.7 825 262.8C850 265 875 267 887.5 268L900 269L900 301L887.5 301C875 301 850 301 825 301C800 301 775 301 750 301C725 301 700 301 675 301C650 301 625 301 600 301C575 301 550 301 525 301C500 301 475 301 450 301C425 301 400 301 375 301C350 301 325 301 300 301C275 301 250 301 225 301C200 301 175 301 150 301C125 301 100 301 75 301C50 301 25 301 12.5 301L0 301Z" fill="#5d9355"></path><path d="M0 269L12.5 270.5C25 272 50 275 75 276.8C100 278.7 125 279.3 150 279.3C175 279.3 200 278.7 225 277.3C250 276 275 274 300 274.2C325 274.3 350 276.7 375 277.8C400 279 425 279 450 277.5C475 276 500 273 525 272.2C550 271.3 575 272.7 600 274.5C625 276.3 650 278.7 675 280.2C700 281.7 725 282.3 750 281.7C775 281 800 279 825 276.5C850 274 875 271 887.5 269.5L900 268L900 301L887.5 301C875 301 850 301 825 301C800 301 775 301 750 301C725 301 700 301 675 301C650 301 625 301 600 301C575 301 550 301 525 301C500 301 475 301 450 301C425 301 400 301 375 301C350 301 325 301 300 301C275 301 250 301 225 301C200 301 175 301 150 301C125 301 100 301 75 301C50 301 25 301 12.5 301L0 301Z" fill="#3d762e"></path></svg>